# xmcd
#
# Track frame offsets:
#       150
#       16396
#       38941
#       62147
#       80376
#       94330
#       107821
#       118890
#       137792
#       151089
#       166024
#       179976
#       192346
#       203826
#       220121
#       238535
#       251155
#       263478
#       275745
#       288463
#       304897
#
# Disc length: 4254 seconds
#
# Revision: 1
# Processed by: cddbd v1.5.1PL2 Copyright (c) Steve Scherf et al.
# Submitted via: MusiCat 1.1
#
DISCID=3a109c15
DTITLE=Mauro Sérgio - Grandes Sucessos
DYEAR=1900
DGENRE=
TTITLE0=Chuva e Lágrima
TTITLE1=Não Vou deixar de Amar
TTITLE2=Amar é Nunca Precisar Pedir Perdão
TTITLE3=Nosso Sonho de Amor
TTITLE4=Luzes da Ribalta
TTITLE5=Nosso Tempo
TTITLE6=Se voce soubesse
TTITLE7=Serenata
TTITLE8=O Solitário
TTITLE9=Sonhar
TTITLE10=Música no Ar
TTITLE11=Eu Te Amarei
TTITLE12=O Fim
TTITLE13=Meu Primeiro Amor
TTITLE14=Se Eu Pudesse Acreditar
TTITLE15=Voce Não Vem
TTITLE16=Nada Vai nos Separar
TTITLE17=Tudo É Lindo em Voce
TTITLE18=És Meu Amor
TTITLE19=Balada da Solidão
TTITLE20=Adeus Pra Nunca Mais
EXTD=\n\n
EXTT0=
EXTT1=
EXTT2=
EXTT3=
EXTT4=
EXTT5=
EXTT6=
EXTT7=
EXTT8=
EXTT9=
EXTT10=
EXTT11=
EXTT12=
EXTT13=
EXTT14=
EXTT15=
EXTT16=
EXTT17=
EXTT18=
EXTT19=
EXTT20=
PLAYORDER=
